<?xml version="1.0" encoding="utf-8" standalone="yes"?>
<!DOCTYPE svg PUBLIC "-//W3C//DTD SVG 1.1//EN" "http://www.w3.org/Graphics/SVG/1.1/DTD/svg11.dtd">
<svg width="792" height="606" viewBox="0 0 792 606" style="fill:none;stroke:none;fill-rule:evenodd;clip-rule:evenodd;stroke-linecap:round;stroke-linejoin:round;stroke-miterlimit:1.5;" version="1.1" xmlns="http://www.w3.org/2000/svg" xmlns:xlink="http://www.w3.org/1999/xlink"><style class="text-font-style fontImports" data-font-family="Roboto">@import url('https://fonts.googleapis.com/css2?family=Roboto:wght@400;700&amp;display=block');</style><g id="items" style="isolation: isolate"><g id="blend" style="mix-blend-mode: normal"><g id="g-root-cp_1_g-1_hvw1rasmpn2k-fill" data-item-order="-379426" transform="translate(2, 176)"><g id="cp_1_g-1_hvw1rasmpn2k-fill" stroke="none" fill="#4e88e7"><g><path d="M 250.0252 10L 202 27L 202 28L 298 28L 298 27L 250.0252 10ZM 298 28L 202 28L 202 118L 298 118L 298 28ZM 298 118L 202 118L 202 190L 10 238L 202 238L 298 190L 298 118Z"></path></g></g></g><g id="g-root-cp_2_g-2_4kfjdysmponi-fill" data-item-order="-379402" transform="translate(194, 221)"><g id="cp_2_g-2_4kfjdysmponi-fill" stroke="none" fill="#3cc583"><g><path d="M 154.0252 10L 106 27L 106 28L 202 28L 202 27L 154.0252 10ZM 202 28L 106 28L 106 73L 202 73L 202 28ZM 202 73L 106 73L 106 145L 10 193L 202 193L 202 145L 202 73Z"></path></g></g></g><g id="g-root-cp_3_g-3_58icmsmpma0-fill" data-item-order="-379378" transform="translate(386, 235.4000244140625)"><g id="cp_3_g-3_58icmsmpma0-fill" stroke="none" fill="#92bd39"><g><path d="M 58.0252 10L 10 27L 10 28L 106 28L 106 27L 58.0252 10ZM 106 28L 10 28L 10 58.599976L 106 58.599976L 106 28ZM 106 58.599976L 10 58.599976L 10 130.599976L 10 178.599976L 202 178.599976L 106 130.599976L 106 58.599976Z"></path></g></g></g><g id="g-root-cp_4_g-4_1luw1yesmpnnu-fill" data-item-order="-379354" transform="translate(482, 176)"><g id="cp_4_g-4_1luw1yesmpnnu-fill" stroke="none" fill="#e0cb15"><g><path d="M 58.0252 10L 10 27L 10 28L 106 28L 106 27L 58.0252 10ZM 106 28L 10 28L 10 118L 106 118L 106 28ZM 106 118L 10 118L 10 190L 106 238L 298 238L 106 190L 106 118Z"></path></g></g></g><g id="g-root-tx_composit_18k20o6smpm30-fill" data-item-order="0" transform="translate(134, 38)"><g id="tx_composit_18k20o6smpm30-fill" stroke="none" fill="#484848"><g><text style="font: bold 25px Roboto, sans-serif; white-space: pre;" font-weight="bold" font-size="25px" font-family="Roboto, sans-serif"><tspan x="12.43" y="39.6" dominant-baseline="ideographic">Composition of Final Data Mix for Language </tspan><tspan x="223.79" y="69.6" dominant-baseline="ideographic">Model</tspan></text></g></g></g><g id="g-root-tx_50_qss06esmpog5-fill" data-item-order="0" transform="translate(212, 122)"><g id="tx_50_qss06esmpog5-fill" stroke="none" fill="#4e88e7"><g><text style="font: bold 25px Roboto, sans-serif; white-space: pre;" font-weight="bold" font-size="25px" font-family="Roboto, sans-serif"><tspan x="16.41" y="42.6" dominant-baseline="ideographic">50%</tspan></text></g></g></g><g id="g-root-tx_8_1qa32zqsmshkz-fill" data-item-order="0" transform="translate(506, 122)"><g id="tx_8_1qa32zqsmshkz-fill" stroke="none" fill="#e0cb15"><g><text style="font: bold 25px Roboto, sans-serif; white-space: pre;" font-weight="bold" font-size="25px" font-family="Roboto, sans-serif"><tspan x="17.59" y="42.6" dominant-baseline="ideographic">8%</tspan></text></g></g></g><g id="g-root-tx_25_1utnfmusmpn9r-fill" data-item-order="0" transform="translate(308, 167)"><g id="tx_25_1utnfmusmpn9r-fill" stroke="none" fill="#3cc583"><g><text style="font: bold 25px Roboto, sans-serif; white-space: pre;" font-weight="bold" font-size="25px" font-family="Roboto, sans-serif"><tspan x="16.41" y="42.6" dominant-baseline="ideographic">25%</tspan></text></g></g></g><g id="g-root-tx_17_6hgiusmr1u1-fill" data-item-order="0" transform="translate(404, 181.4000244140625)"><g id="tx_17_6hgiusmr1u1-fill" stroke="none" fill="#92bd39"><g><text style="font: bold 25px Roboto, sans-serif; white-space: pre;" font-weight="bold" font-size="25px" font-family="Roboto, sans-serif"><tspan x="16.41" y="42.6" dominant-baseline="ideographic">17%</tspan></text></g></g></g><g id="g-root-ic_page_hxrh0msmpm32-fill" data-item-order="0" transform="translate(218, 284)"></g><g id="g-root-ic_circ_1d2zw86smpmh4-fill" data-item-order="0" transform="translate(314, 284)"></g><g id="g-root-ic_1_1lw504msmr37u-fill" data-item-order="0" transform="translate(410, 284)"></g><g id="g-root-ic_mess_1cz91pismsg04-fill" data-item-order="0" transform="translate(506, 284)"></g><g id="g-root-tx_generalk_2qm06smtvd1-fill" data-item-order="0" transform="translate(68, 440)"><g id="tx_generalk_2qm06smtvd1-fill" stroke="none" fill="#4e88e7"><g><text style="font: bold 20px Roboto, sans-serif; white-space: pre;" font-weight="bold" font-size="20px" font-family="Roboto, sans-serif"><tspan x="29.28" y="33.2" dominant-baseline="ideographic">General </tspan><tspan x="14.29" y="57.2" dominant-baseline="ideographic">Knowledge</tspan></text></g></g></g><g id="g-root-tx_mathemat_zlx42usmtvyn-fill" data-item-order="0" transform="translate(230, 440)"><g id="tx_mathemat_zlx42usmtvyn-fill" stroke="none" fill="#3cc583"><g><text style="font: bold 20px Roboto, sans-serif; white-space: pre;" font-weight="bold" font-size="20px" font-family="Roboto, sans-serif"><tspan x="11.84" y="33.2" dominant-baseline="ideographic">Mathematical and </tspan><tspan x="45.15" y="57.2" dominant-baseline="ideographic">Reasoning</tspan></text></g></g></g><g id="g-root-tx_code_dfg2jqsmtvy9-fill" data-item-order="0" transform="translate(470, 440)"><g id="tx_code_dfg2jqsmtvy9-fill" stroke="none" fill="#92bd39"><g><text style="font: bold 20px Roboto, sans-serif; white-space: pre;" font-weight="bold" font-size="20px" font-family="Roboto, sans-serif"><tspan x="16.78" y="33.2" dominant-baseline="ideographic">Code</tspan></text></g></g></g><g id="g-root-tx_multilin_1lu9kvasmtvr7-fill" data-item-order="0" transform="translate(608, 440)"><g id="tx_multilin_1lu9kvasmtvr7-fill" stroke="none" fill="#e0cb15"><g><text style="font: bold 20px Roboto, sans-serif; white-space: pre;" font-weight="bold" font-size="20px" font-family="Roboto, sans-serif"><tspan x="16.76" y="33.2" dominant-baseline="ideographic">Multilingual</tspan></text></g></g></g><g id="g-root-tx_programm_4m19ismtude-fill" data-item-order="0" transform="translate(422, 476)"><g id="tx_programm_4m19ismtude-fill" stroke="none" fill="#424736"><g><text style="font: 15px Roboto, sans-serif; white-space: pre;" font-size="15px" font-family="Roboto, sans-serif"><tspan x="28.19" y="27.6" dominant-baseline="ideographic">Programming and </tspan><tspan x="16.84" y="45.6" dominant-baseline="ideographic">software-related data</tspan></text></g></g></g><g id="g-root-tx_diversel_1cz91pismtte4-fill" data-item-order="0" transform="translate(602, 476)"><g id="tx_diversel_1cz91pismtte4-fill" stroke="none" fill="#46432d"><g><text style="font: 15px Roboto, sans-serif; white-space: pre;" font-size="15px" font-family="Roboto, sans-serif"><tspan x="17.54" y="27.6" dominant-baseline="ideographic">Diverse linguistic </tspan><tspan x="48.77" y="45.6" dominant-baseline="ideographic">content</tspan></text></g></g></g><g id="g-root-tx_broadran_1lt0mp2smttl2-fill" data-item-order="0" transform="translate(38, 500)"><g id="tx_broadran_1lt0mp2smttl2-fill" stroke="none" fill="#3a4455"><g><text style="font: 15px Roboto, sans-serif; white-space: pre;" font-size="15px" font-family="Roboto, sans-serif"><tspan x="12.11" y="27.6" dominant-baseline="ideographic">Broad range of common </tspan><tspan x="54.14" y="45.6" dominant-baseline="ideographic">information</tspan></text></g></g></g><g id="g-root-tx_logicala_qqwkx2smtudc-fill" data-item-order="0" transform="translate(236, 500)"><g id="tx_logicala_qqwkx2smtudc-fill" stroke="none" fill="#374840"><g><text style="font: 15px Roboto, sans-serif; white-space: pre;" font-size="15px" font-family="Roboto, sans-serif"><tspan x="14" y="27.6" dominant-baseline="ideographic">Logical and analytical </tspan><tspan x="60.76" y="45.6" dominant-baseline="ideographic">content</tspan></text></g></g></g><g id="g-root-cp_1_g-1_hvw1rasmpn2k-stroke" data-item-order="-379426" transform="translate(2, 176)"><g id="cp_1_g-1_hvw1rasmpn2k-stroke" fill="none" stroke-linecap="round" stroke-linejoin="round" stroke-miterlimit="4" stroke="#ffffff" stroke-width="2"><g><path d="M 298 28L 298 27L 250.0252 10L 202 27L 202 28M 298 28L 298 118M 202 118L 202 28M 10 238L 202 190L 298 190L 202 238L 10 238ZM 202 190L 202 118M 298 118L 298 190"></path></g></g></g><g id="g-root-cp_2_g-2_4kfjdysmponi-stroke" data-item-order="-379402" transform="translate(194, 221)"><g id="cp_2_g-2_4kfjdysmponi-stroke" fill="none" stroke-linecap="round" stroke-linejoin="round" stroke-miterlimit="4" stroke="#ffffff" stroke-width="2"><g><path d="M 202 28L 202 27L 154.0252 10L 106 27L 106 28M 202 28L 202 73M 106 73L 106 28M 10 193L 106 145L 202 145L 202 193L 10 193ZM 106 145L 106 73M 202 73L 202 145"></path></g></g></g><g id="g-root-cp_3_g-3_58icmsmpma0-stroke" data-item-order="-379378" transform="translate(386, 235.4000244140625)"><g id="cp_3_g-3_58icmsmpma0-stroke" fill="none" stroke-linecap="round" stroke-linejoin="round" stroke-miterlimit="4" stroke="#ffffff" stroke-width="2"><g><path d="M 106 28L 106 27L 58.0252 10L 10 27L 10 28M 106.000008 28L 106.000008 58.599976M 10 58.599976L 10 28M 10 178.599976L 10 130.599976L 106 130.599976L 202 178.599976L 10 178.599976ZM 10 130.599976L 10 58.599976M 106 58.599976L 106 130.599976"></path></g></g></g><g id="g-root-cp_4_g-4_1luw1yesmpnnu-stroke" data-item-order="-379354" transform="translate(482, 176)"><g id="cp_4_g-4_1luw1yesmpnnu-stroke" fill="none" stroke-linecap="round" stroke-linejoin="round" stroke-miterlimit="4" stroke="#ffffff" stroke-width="2"><g><path d="M 106 28L 106 27L 58.0252 10L 10 27L 10 28M 106 28L 106 118M 10 118L 10 28M 106 238L 10 190L 106 190L 298 238L 106 238ZM 10 190L 10 118M 106 118L 106 190"></path></g></g></g><g id="g-root-tx_composit_18k20o6smpm30-stroke" data-item-order="0" transform="translate(134, 38)"></g><g id="g-root-tx_50_qss06esmpog5-stroke" data-item-order="0" transform="translate(212, 122)"></g><g id="g-root-tx_8_1qa32zqsmshkz-stroke" data-item-order="0" transform="translate(506, 122)"></g><g id="g-root-tx_25_1utnfmusmpn9r-stroke" data-item-order="0" transform="translate(308, 167)"></g><g id="g-root-tx_17_6hgiusmr1u1-stroke" data-item-order="0" transform="translate(404, 181.4000244140625)"></g><g id="g-root-ic_page_hxrh0msmpm32-stroke" data-item-order="0" transform="translate(218, 284)"><g id="ic_page_hxrh0msmpm32-stroke" fill="none" stroke-linecap="round" stroke-linejoin="round" stroke-miterlimit="4" stroke="#ffffff" stroke-width="2"><g><path d="M 46 18.588001C 48.972301 18.113863 51.976196 17.865154 54.986 17.844C 55.253635 17.840252 55.5116 17.943953 55.702175 18.131897C 55.89275 18.319841 56.000027 18.57634 56 18.844L 56 50.375999C 56.000053 50.922863 55.56081 51.368343 55.014 51.375999C 38.799999 51.582001 34 56.838001 34 56.838001L 34 23.306C 34 23.306 29.200001 18.056 13.014 17.844C 12.746367 17.840252 12.4884 17.943953 12.297826 18.131897C 12.10725 18.319841 11.999973 18.57634 12 18.844L 12 50.375999C 11.999947 50.922863 12.43919 51.368343 12.986 51.375999C 29.200001 51.582001 34 56.838001 34 56.838001M 34 55.838001C 34.817318 49.580261 39.742264 44.655319 46 43.838001L 46 12.162C 45.999981 11.839119 45.844067 11.536115 45.581356 11.348407C 45.318642 11.160699 44.981464 11.111386 44.675999 11.216C 34.694 14.624001 34 21.897999 34 22.838001"></path></g></g></g><g id="g-root-ic_circ_1d2zw86smpmh4-stroke" data-item-order="0" transform="translate(314, 284)"><g id="ic_circ_1d2zw86smpmh4-stroke" fill="none" stroke-linecap="round" stroke-linejoin="round" stroke-miterlimit="4" stroke="#ffffff" stroke-width="2"><g><path d="M 34.099998 56.599602C 46.5266 56.599602 56.600201 46.526001 56.600201 34.099602C 56.600201 21.67314 46.5266 11.59961 34.099998 11.59961C 21.673641 11.59961 11.600006 21.67314 11.600006 34.099602C 11.600006 46.526001 21.673641 56.599602 34.099998 56.599602ZM 10 10M 20.400059 35.599602L 23.60006 43.199402L 30.200001 24.5996L 44.400002 24.5996M 10 10M 34.517601 30.7792L 43.314999 43.1992M 42.797401 30.7792L 34 43.1992"></path></g></g></g><g id="g-root-ic_1_1lw504msmr37u-stroke" data-item-order="0" transform="translate(410, 284)"><g id="ic_1_1lw504msmr37u-stroke" fill="none" stroke-linecap="round" stroke-linejoin="round" stroke-miterlimit="4" stroke="#ffffff" stroke-width="2"><g><path d="M 13.428572 16.857143L 54.57143 16.857143C 54.57143 16.857143 56.285713 16.857143 56.285713 18.571428L 56.285713 46C 56.285713 46 56.285713 47.714287 54.57143 47.714287L 13.428572 47.714287C 13.428572 47.714287 11.714286 47.714287 11.714286 46L 11.714286 18.571428C 11.714286 18.571428 11.714286 16.857143 13.428572 16.857143M 30.571428 47.714287L 27.142857 56.285713M 37.428574 47.714287L 40.857143 56.285713M 23.714287 56.285713L 44.285713 56.285713M 25.428572 28L 19.428572 33.142857L 24.571428 37.428574M 43.428574 28.857143L 48.57143 33.142857L 42.57143 38.285713M 31.428572 40L 36.57143 24.571428"></path></g></g></g><g id="g-root-ic_mess_1cz91pismsg04-stroke" data-item-order="0" transform="translate(506, 284)"><g id="ic_mess_1cz91pismsg04-stroke" fill="none" stroke-linecap="round" stroke-linejoin="round" stroke-miterlimit="4" stroke="#ffffff" stroke-width="2"><g><path d="M 55.400002 25.1L 14.4 25.1M 55.400002 41.099998L 14.4 41.099998M 40 54.48C 42.880001 50.099998 44.82 42.16 44.82 33.099998C 44.82 24.040001 42.959999 16.1 40 11.72M 29.719999 54.48C 26.82 50.099998 24.9 42.16 24.9 33.099998C 24.9 24.040001 26.9 16.1 29.719999 11.72M 11.2 55.459999L 16.18 44.66C 10.314265 35.160789 12.493597 22.774128 21.249332 15.847445C 30.005068 8.920761 42.560799 9.65048 50.455162 17.544842C 58.349522 25.439201 59.079239 37.994934 52.152557 46.750668C 45.225872 55.506405 32.839211 57.685738 23.34 51.82L 12.54 56.799999C 12.155515 56.990494 11.692357 56.914463 11.388947 56.611053C 11.085535 56.307644 11.009508 55.844486 11.2 55.459999Z"></path></g></g></g><g id="g-root-tx_generalk_2qm06smtvd1-stroke" data-item-order="0" transform="translate(68, 440)"></g><g id="g-root-tx_mathemat_zlx42usmtvyn-stroke" data-item-order="0" transform="translate(230, 440)"></g><g id="g-root-tx_code_dfg2jqsmtvy9-stroke" data-item-order="0" transform="translate(470, 440)"></g><g id="g-root-tx_multilin_1lu9kvasmtvr7-stroke" data-item-order="0" transform="translate(608, 440)"></g><g id="g-root-tx_programm_4m19ismtude-stroke" data-item-order="0" transform="translate(422, 476)"></g><g id="g-root-tx_diversel_1cz91pismtte4-stroke" data-item-order="0" transform="translate(602, 476)"></g><g id="g-root-tx_broadran_1lt0mp2smttl2-stroke" data-item-order="0" transform="translate(38, 500)"></g><g id="g-root-tx_logicala_qqwkx2smtudc-stroke" data-item-order="0" transform="translate(236, 500)"></g></g></g></svg>