<?xml version="1.0" encoding="utf-8" standalone="yes"?>
<!DOCTYPE svg PUBLIC "-//W3C//DTD SVG 1.1//EN" "http://www.w3.org/Graphics/SVG/1.1/DTD/svg11.dtd">
<svg width="600" height="469" viewBox="0 0 600 469" style="fill:none;stroke:none;fill-rule:evenodd;clip-rule:evenodd;stroke-linecap:round;stroke-linejoin:round;stroke-miterlimit:1.5;" version="1.1" xmlns="http://www.w3.org/2000/svg" xmlns:xlink="http://www.w3.org/1999/xlink"><style class="text-font-style fontImports" data-font-family="Roboto">@import url('https://fonts.googleapis.com/css2?family=Roboto:wght@400;700&amp;display=block');</style><g id="items" style="isolation: isolate"><g id="blend" style="mix-blend-mode: normal"><g id="g-root-sy_4_cu_1uuwqafr8rmrn-fill" data-item-order="-105977" transform="translate(121.95700073242188, 219.0001220703125)"></g><g id="g-root-sy_3_Exclude_1lz9q1jr8rnkc-fill" data-item-order="-105974" transform="translate(243.055908203125, 256.0001220703125)"><g id="sy_3_Exclude_1lz9q1jr8rnkc-fill" stroke="none" fill="#969696"><g><path d="M 56.944107 10C 49.471107 10 43.195107 15.122 41.436107 22.047L 10.134107 124.12C 9.542107 126.049 10.984107 128 13.002107 128L 100.886107 128C 102.903107 128 104.346107 126.049 103.754107 124.12L 72.454107 22.054C 70.696107 15.126 64.419107 10 56.944107 10ZM 56.944107 33C 60.810107 33 63.944107 29.866 63.944107 26C 63.944107 22.134 60.810107 19 56.944107 19C 53.078107 19 49.944107 22.134 49.944107 26C 49.944107 29.866 53.078107 33 56.944107 33Z"></path></g></g></g><g id="g-root-sy_2_right-bucket_1hjg7x3r8rocl-fill" data-item-order="-105970" transform="translate(338, 230.0001220703125)"><g id="sy_2_right-bucket_1hjg7x3r8rocl-fill" stroke="none" fill="#4e88e7"><g><path d="M 11.081 15.729C 10.338 14.904 10 13.826 10 12.716L 10 12.716C 10 11.216 11.216 10 12.716 10L 235.284 10C 236.784 10 238 11.216 238 12.716L 238 12.716C 238 13.826 237.662 14.904 236.919 15.729C 231.551 21.692 204.717 46 124 46C 43.283 46 16.449 21.692 11.081 15.729Z"></path></g></g></g><g id="g-root-sy_1_left-bucket_18nt7o7r8rp5a-fill" data-item-order="-105966" transform="translate(14, 182.0001220703125)"><g id="sy_1_left-bucket_18nt7o7r8rp5a-fill" stroke="none" fill="#1eabda"><g><path d="M 11.0812 15.729C 10.3384 14.904 10 13.826 10 12.716L 10 12.716C 10 11.216 11.2158 10 12.7157 10L 235.284 10C 236.784 10 238 11.216 238 12.716L 238 12.716C 238 13.826 237.662 14.904 236.919 15.729C 231.551 21.692 204.717 46 124 46C 43.2826 46 16.4488 21.692 11.0812 15.729Z"></path></g></g></g><g id="g-root-ic_myth_1hapkpjr8uigw-fill" data-item-order="-2304" transform="translate(26, 50)"><g id="ic_myth_1hapkpjr8uigw-fill" stroke="none" fill="#969696"><g><path d="M 34 33.760002C 35.463345 33.810005 36.920822 33.970463 38.360001 34.239998L 38.360001 33.760002C 40.080826 32.03804 41.220596 29.821428 41.620003 27.42C 43.281815 26.764254 44.501446 25.315422 44.864204 23.566124C 45.226959 21.81683 44.684025 20.002487 43.420002 18.740002C 43.671562 17.204458 43.238251 15.635755 42.234192 14.447042C 41.230133 13.258329 39.755989 12.568779 38.200001 12.559999C 37.389435 11.358444 36.120571 10.54293 34.690895 10.30465C 33.261215 10.066371 31.796448 10.42628 30.640001 11.3C 28.558319 9.813475 25.723656 9.971418 23.82 11.68C 22.171003 10.958708 20.269598 11.116628 18.762186 12.100072C 17.254776 13.083517 16.344193 14.760157 16.34 16.560001C 16.375648 18.125156 17.109264 19.592386 18.34 20.559999C 18.497318 20.614929 18.640684 20.703678 18.76 20.82C 19.297918 21.375534 20.053772 21.665066 20.825174 21.611069C 21.596575 21.55707 22.304722 21.165058 22.759998 20.539999C 22.952343 20.280003 23.25659 20.126629 23.58 20.126629C 23.90341 20.126629 24.207657 20.280003 24.4 20.540001C 25.17646 21.7318 26.612741 22.314291 28.000002 22C 28.552324 21.878405 29.098631 22.227627 29.220146 22.779968C 29.341661 23.33231 28.992359 23.878567 28.440001 24C 26.701284 24.395823 24.87957 23.901035 23.58 22.68C 22.082603 23.899605 19.984602 24.059151 18.32 23.08C 17.82 24.26 17.360001 25.48 16.860001 26.780001C 16.200001 28.559999 15.8 29.16 16.200001 30.08C 16.524458 30.761745 17.205183 31.202669 17.959999 31.219999L 19.08 31.219999L 19.08 33.599998C 19.08 36.074234 21.085764 38.080002 23.559999 38.080002L 24.220001 38.080002L 24.220001 39.779999L 15.38 43.779999C 13.042569 44.776672 11.299266 46.800674 10.66 49.259998L 10.28 50.759998C 10.227553 51.063869 10.310033 51.375519 10.505929 51.613667C 10.701825 51.851818 10.991716 51.992855 11.3 51.999996L 28.860001 52.099998L 28.860001 38.559998C 28.868437 37.229603 29.424141 35.961342 30.396503 35.053299C 31.368866 34.145256 32.672134 33.677509 34 33.760002ZM 31.5 28.540001C 32.080643 28.185846 32.472858 27.590967 32.569584 26.917757C 32.666309 26.244545 32.457443 25.563303 32 25.059999C 31.811872 24.875673 31.705858 24.623379 31.705858 24.360001C 31.705858 24.096621 31.811872 23.844326 32 23.66C 32.187767 23.470688 32.443363 23.364201 32.709999 23.364201C 32.976639 23.364201 33.232231 23.470688 33.419998 23.66C 34.2967 24.645657 34.669907 25.980515 34.431526 27.277931C 34.193146 28.57535 33.369812 29.690359 32.200001 30.300001C 31.691727 30.526861 31.095427 30.304361 30.859999 29.799999C 30.70068 29.27631 30.983133 28.72023 31.5 28.539999ZM 23.060001 28.299999C 22.297848 28.299999 21.68 27.682154 21.68 26.92C 21.67996 26.555813 21.825989 26.206825 22.085381 25.951195C 22.344772 25.69556 22.695852 25.554646 23.059999 25.559999C 23.422337 25.55455 23.771435 25.696085 24.027676 25.952324C 24.283915 26.208565 24.425449 26.557663 24.42 26.92C 24.425356 27.284147 24.284439 27.635229 24.028805 27.894621C 23.773174 28.154013 23.424187 28.300039 23.059999 28.299999ZM 55.779999 36.760002C 51.964958 36.902336 48.223122 37.849724 44.799999 39.540001C 41.37772 37.847439 37.635387 36.899925 33.82 36.760002C 33.308388 36.715332 32.801392 36.886505 32.421558 37.232155C 32.041729 37.577797 31.823635 38.066456 31.82 38.580002L 31.82 53.52C 31.820002 54.525162 32.634842 55.340004 33.639999 55.340004C 33.940002 55.34 34.279999 55.240002 35.639999 55.240002C 38.389889 55.249767 41.078129 56.055546 43.379997 57.559998C 43.836121 57.717148 44.318218 57.785049 44.799999 57.759998C 45.314926 57.79509 45.831676 57.727097 46.32 57.559998C 48.593235 56.042065 51.266556 55.234501 53.999996 55.239998C 55.099998 55.240002 55.66 55.34 55.880001 55.34C 56.899597 55.3512 57.738136 54.539425 57.760002 53.52L 57.759998 38.580002C 57.750145 38.072166 57.533031 37.590454 57.159077 37.246719C 56.785126 36.902985 56.286869 36.727135 55.780003 36.760002ZM 34.720001 52.380001L 34.720001 39.68C 37.699501 39.912384 40.60939 40.699211 43.299999 42L 43.299999 54.259998C 40.66449 52.863899 37.697819 52.21386 34.720001 52.379997ZM 46.299999 42C 48.993267 40.709633 51.902428 39.929787 54.880001 39.699997L 54.880001 52.400002C 51.90403 52.227722 48.937469 52.870823 46.299999 54.259998ZM 36.879997 44.419998C 38.231052 44.43679 39.557018 44.787178 40.739998 45.439999C 40.880173 45.519611 41.038803 45.560989 41.200001 45.560001C 41.658882 45.562317 42.060448 45.252018 42.173969 44.807396C 42.287487 44.362774 42.083824 43.897949 41.68 43.68C 40.208439 42.870472 38.559444 42.437611 36.880001 42.420002C 36.327713 42.419998 35.879997 42.867714 35.879997 43.419998C 35.89064 43.967815 36.332184 44.409359 36.879997 44.419998ZM 36.879997 49.139999C 38.231159 49.174095 39.554596 49.53067 40.739998 50.179996C 40.880173 50.259609 41.038803 50.300991 41.200001 50.299999C 41.658882 50.302319 42.060448 49.99202 42.173969 49.547398C 42.287487 49.102772 42.083824 48.637947 41.68 48.419998C 40.209938 47.604275 38.561035 47.164566 36.879997 47.139999C 36.332184 47.150639 35.89064 47.592182 35.879997 48.139999C 35.879997 48.692284 36.327713 49.139999 36.879997 49.139999ZM 52.740002 42.419998C 51.06633 42.433361 49.422783 42.8666 47.959999 43.68C 47.619114 43.833023 47.391975 44.16333 47.37109 44.536404C 47.350208 44.909477 47.539059 45.263073 47.860737 45.453186C 48.182415 45.643303 48.583248 45.638214 48.900002 45.439999C 50.082043 44.78484 51.408611 44.434296 52.760002 44.420002C 53.312344 44.414558 53.755676 43.962341 53.750153 43.409996C 53.744629 42.857651 53.292343 42.414391 52.739998 42.419998ZM 52.740002 47.139999C 51.066437 47.172699 49.425949 47.611996 47.959999 48.419998C 47.477177 48.676704 47.290081 49.273628 47.540001 49.759998C 47.663361 49.997322 47.876656 50.175335 48.132214 50.254257C 48.387775 50.333179 48.664303 50.306435 48.900002 50.18C 50.084225 49.527752 51.408386 49.170982 52.759998 49.139999C 53.023415 49.140057 53.275761 49.034065 53.460133 48.845932C 53.644505 48.657795 53.745377 48.403358 53.740002 48.139999C 53.710236 47.600521 53.279472 47.169762 52.739998 47.139996Z"></path></g></g></g><g id="g-root-ic_2_74a3br8vv9e-fill" data-item-order="-2304" transform="translate(350, 98)"><g id="ic_2_74a3br8vv9e-fill" stroke="none" fill="#969696"><g><path d="M 56.939999 11.059999C 56.197197 10.3415 55.192608 9.958455 54.16 10C 47.700001 10.24 44.299999 11.74 42.5 13.14C 40.700001 11.74 37.299999 10.24 30.84 10C 29.787655 9.946521 28.759956 10.330098 28 11.06C 27.3472 11.694244 26.98534 12.569946 27 13.48L 27 30.799999C 27 31.90457 27.89543 32.799999 29 32.799999C 30.10457 32.799999 31 31.90457 31 30.799999L 31 14C 37.860001 14.3 39.98 16.1 40.5 16.719999L 40.5 36.540001C 40.485687 37.524361 41.18985 38.372746 42.16 38.540001L 42.5 38.540001C 43.312305 38.53265 44.039467 38.034698 44.34 37.279999C 44.459999 37.080002 46.119999 34.639999 54.34 34.34C 55.29636 34.361435 56.221519 33.999226 56.909115 33.334175C 57.596714 32.669121 57.989548 31.756542 57.999996 30.799999L 58 13.48C 57.999081 12.56092 57.614914 11.683861 56.940002 11.06ZM 54 30.280001C 50.732208 30.311651 47.503181 30.991447 44.5 32.279999L 44.5 16.74C 45.02 16.119999 47.16 14.280001 54 14ZM 10.62 42.66C 10.787077 42.756462 10.992924 42.756462 11.16 42.66C 12.037999 42.209835 13.013466 41.983139 14 42L 34 42C 34.991619 42.001629 35.967377 42.249004 36.84 42.720001C 37.007076 42.816463 37.212925 42.816463 37.380001 42.720001C 37.530933 42.601654 37.600868 42.407394 37.559998 42.220001L 36 35.760002C 35.882538 35.314365 35.480846 35.002853 35.02 35L 32 35C 31.734793 34.996765 31.48056 35.105721 31.299999 35.299999C 30.206644 36.3909 28.724503 37.002464 27.18 37L 20.82 37C 19.275499 37.002464 17.793358 36.3909 16.700001 35.300003C 16.51944 35.105721 16.265207 34.996765 16 35L 13 35C 12.539152 35.002853 12.137465 35.314365 12.02 35.760002L 10.44 42.16C 10.399134 42.347397 10.469067 42.541653 10.62 42.66ZM 34 44L 14 44C 11.790861 44 10 45.790859 10 48L 10 54C 10 56.209141 11.790861 58 14 58L 34 58C 36.209137 58 38 56.209141 38 54L 38 48C 38 45.790859 36.209137 44 34 44ZM 18 54C 16.343145 54 15 52.656857 15 51C 15 49.343147 16.343145 48 18 48C 19.656855 48 21 49.343147 21 51C 21 52.656857 19.656855 54 18 54ZM 30 54C 28.343147 54 27 52.656857 27 51C 27 49.343147 28.343147 48 30 48C 31.656855 48 33 49.343147 33 51C 33 52.656857 31.656855 54 30 54Z"></path></g></g></g><g id="g-root-ic_grow_13yml93r8t1c7-fill" data-item-order="-2304" transform="translate(26, 122.0001220703125)"><g id="ic_grow_13yml93r8t1c7-fill" stroke="none" fill="#969696"><g><path d="M 12 35C 26.4 34.739998 34.260002 29 36.66 16.799999C 36.747757 16.329964 37.161911 15.991879 37.639999 16L 38.959999 16C 39.406609 16.050533 39.832054 15.7969 40 15.38C 40.167557 15.010262 40.078835 14.574734 39.779999 14.3L 35.779999 10.3C 35.598534 10.106646 35.345169 9.996963 35.079998 9.996963C 34.814827 9.996963 34.561462 10.106646 34.379997 10.3L 30.379999 14.3C 30.081163 14.574734 29.992445 15.010262 30.16 15.38C 30.301331 15.728029 30.625778 15.967501 31 16L 31.540001 16C 31.844963 15.998402 32.133289 16.138868 32.32 16.380001C 32.513718 16.621464 32.587288 16.937836 32.52 17.24C 30.24 26.620001 24 30.780001 12 31C 10.895431 31 10 31.89543 10 33C 10 34.104568 10.895431 35 12 35ZM 55.5 53L 46 53C 45.447716 53 45 52.552284 45 52L 45 28.559999C 45.004906 27.792028 45.197132 27.036854 45.559998 26.360001C 47.13826 24.27902 49.254177 22.667881 51.679996 21.699999C 51.931824 21.612247 52.20853 21.630905 52.446293 21.751675C 52.684055 21.87244 52.862331 22.084887 52.939999 22.34C 53.11079 22.864639 52.824398 23.428474 52.299999 23.6C 50.195019 24.491001 48.365562 25.926952 46.999996 27.759998C 46.908817 27.863922 46.87178 28.004658 46.899998 28.139999C 46.916637 28.286579 46.99715 28.418329 47.119999 28.5C 47.804237 28.924532 48.594788 29.146441 49.400002 29.140001C 51.016769 29.070215 52.564522 28.465185 53.799999 27.42C 57.143494 23.975334 58.585796 19.110369 57.660004 14.4C 57.564102 14.11528 57.353935 13.883374 57.080002 13.76C 56.807972 13.630439 56.492027 13.630439 56.220001 13.76C 54.557846 14.617467 52.728664 15.102064 50.859997 15.18C 47.299999 15.559999 43.32 16.68 42.860001 20.220001C 42.768078 20.896225 42.8507 21.584723 43.099998 22.220001C 43.220558 22.545742 43.159691 22.910965 42.939999 23.18C 41.725838 24.678463 41.068542 26.551414 41.080002 28.480001L 41.080002 36.700001C 41.080696 36.899445 40.962795 37.080223 40.779999 37.16C 40.612923 37.256462 40.407078 37.256462 40.239998 37.16C 40.045433 37.003273 39.928642 36.769684 39.919998 36.519997C 39.885735 36.289265 39.832214 36.061806 39.759998 35.839996C 39.110641 34.461411 37.838089 33.479088 36.339996 33.199997C 34.758347 32.866447 33.112747 33.019852 31.620001 33.639999C 30.344877 34.123604 28.980892 34.328201 27.619999 34.239998C 27.318638 34.206825 27.018135 34.309437 26.799999 34.52C 26.586838 34.737541 26.477551 35.036259 26.499998 35.339996C 27.22673 39.119698 29.760008 42.303108 33.279999 43.860001C 33.995102 44.069969 34.734871 44.184296 35.479996 44.199997C 36.41642 44.241039 37.328239 43.893681 38 43.240002C 38.102375 43.125172 38.153004 42.973286 38.139999 42.82C 38.117386 42.664711 38.020302 42.530285 37.879997 42.459999C 36.295395 41.617085 34.576584 41.055428 32.799999 40.799999C 32.247715 40.717155 31.867157 40.202286 31.950001 39.650002C 32.032845 39.097717 32.547714 38.717155 33.099998 38.800003C 35.868279 38.98011 38.476799 40.159985 40.439999 42.119999C 40.776253 42.570721 40.958569 43.117668 40.959999 43.679996L 40.959999 52C 40.959999 52.552284 40.512283 53 39.959999 53L 12.5 53C 11.119288 53 10 54.119289 10 55.5C 10 56.880714 11.119288 58 12.5 58L 55.5 58C 56.880714 58 58 56.880714 58 55.5C 58 54.119289 56.880714 53 55.5 53Z"></path></g></g></g><g id="g-root-ic_clou_1qegr2vr8uhhd-fill" data-item-order="-2304" transform="translate(350, 170.0001220703125)"><g id="ic_clou_1qegr2vr8uhhd-fill" stroke="none" fill="#969696"><g><path d="M 43 40C 40.790863 40 39 41.790863 39 44C 39.006622 44.316284 38.857002 44.615528 38.599998 44.799999L 37.799999 45.400002C 37.640297 45.497223 37.439701 45.497223 37.279999 45.400002C 37.101341 45.318394 36.990425 45.136177 37 44.939999L 37 40C 37.002087 39.715099 36.877525 39.443993 36.659996 39.259998C 36.446747 39.069874 36.164673 38.975849 35.879997 39C 35.26321 39.079796 34.64193 39.119877 34.02 39.120003C 33.384781 39.1199 32.750191 39.079819 32.120003 39C 31.837931 38.967972 31.555273 39.054939 31.34 39.239998C 31.12578 39.434937 31.002558 39.710373 30.999998 40L 31 55C 31 56.656857 32.343147 58 34 58C 35.656853 58 37 56.656857 37 55L 37 51.48C 37.003071 51.165974 37.150623 50.870872 37.400002 50.68L 41 48C 41.255363 47.819458 41.577423 47.760902 41.879997 47.839996C 42.24234 47.95303 42.620502 48.007053 43 48C 45.209141 48 47 46.209141 47 44C 47 41.790863 45.209141 40 43 40ZM 47.639999 20.1C 47.135067 20.202641 46.63689 19.896742 46.5 19.4C 45.105728 14.56382 41.045113 10.967016 36.076 10.166652C 31.10689 9.366287 26.122274 11.506192 23.280001 15.66C 23.048637 15.943764 22.678389 16.074894 22.32 16C 17.914328 15.407108 13.646182 17.793736 11.844453 21.857632C 10.042724 25.921526 11.140018 30.686922 14.537605 33.553604C 17.935192 36.420292 22.817286 36.699955 26.52 34.239998C 26.845592 34.041992 27.254408 34.041992 27.58 34.239998C 32.120033 36.847557 37.785824 36.452454 41.919998 33.239998C 42.255066 32.937222 42.764935 32.937222 43.099998 33.239998C 45.688457 36.071938 49.922951 36.667503 53.192139 34.659424C 56.46133 32.65134 57.844612 28.605087 56.488941 25.015919C 55.13327 21.426746 51.420403 19.30537 47.639999 19.959999Z"></path></g></g></g><g id="g-root-tx_requires_dg2w47r8xb7w-fill" data-item-order="0" transform="translate(86, 38)"><g id="tx_requires_dg2w47r8xb7w-fill" stroke="none" fill="#484848"><g><text style="font: 20px Roboto, sans-serif; white-space: pre;" font-size="20px" font-family="Roboto, sans-serif"><tspan x="12" y="33.2" dominant-baseline="ideographic">Requires </tspan><tspan x="12" y="57.2" dominant-baseline="ideographic">Specific Training </tspan><tspan x="12" y="81.2" dominant-baseline="ideographic">Data</tspan></text></g></g></g><g id="g-root-tx_signific_qrjehjr8x9mz-fill" data-item-order="0" transform="translate(86, 110.0001220703125)"><g id="tx_signific_qrjehjr8x9mz-fill" stroke="none" fill="#484848"><g><text style="font: 20px Roboto, sans-serif; white-space: pre;" font-size="20px" font-family="Roboto, sans-serif"><tspan x="12" y="33.2" dominant-baseline="ideographic">Significant </tspan><tspan x="12" y="57.2" dominant-baseline="ideographic">Performance </tspan><tspan x="12" y="81.2" dominant-baseline="ideographic">Improvement</tspan></text></g></g></g><g id="g-root-tx_strongin_1luwefrr8xb0u-fill" data-item-order="0" transform="translate(410, 98.0001220703125)"><g id="tx_strongin_1luwefrr8xb0u-fill" stroke="none" fill="#484848"><g><text style="font: 20px Roboto, sans-serif; white-space: pre;" font-size="20px" font-family="Roboto, sans-serif"><tspan x="12" y="33.2" dominant-baseline="ideographic">Strong In-</tspan><tspan x="12" y="57.2" dominant-baseline="ideographic">Context Learning</tspan></text></g></g></g><g id="g-root-tx_negligib_58utzr8x9n1-fill" data-item-order="0" transform="translate(410, 158.0001220703125)"><g id="tx_negligib_58utzr8x9n1-fill" stroke="none" fill="#484848"><g><text style="font: 20px Roboto, sans-serif; white-space: pre;" font-size="20px" font-family="Roboto, sans-serif"><tspan x="12" y="33.2" dominant-baseline="ideographic">Negligible </tspan><tspan x="12" y="57.2" dominant-baseline="ideographic">Performance </tspan><tspan x="12" y="81.2" dominant-baseline="ideographic">Improvement</tspan></text></g></g></g><g id="g-root-tx_8bmodel_18k2d5jr8x9fz-fill" data-item-order="0" transform="translate(80, 290.0001220703125)"><g id="tx_8bmodel_18k2d5jr8x9fz-fill" stroke="none" fill="#484848"><g><text style="font: 20px Roboto, sans-serif; white-space: pre;" font-size="20px" font-family="Roboto, sans-serif"><tspan x="15.86" y="33.2" dominant-baseline="ideographic">8B Model</tspan></text></g></g></g><g id="g-root-tx_405bmode_zofcwnr8xb0g-fill" data-item-order="0" transform="translate(392, 338.0001220703125)"><g id="tx_405bmode_zofcwnr8xb0g-fill" stroke="none" fill="#484848"><g><text style="font: 20px Roboto, sans-serif; white-space: pre;" font-size="20px" font-family="Roboto, sans-serif"><tspan x="16.62" y="33.2" dominant-baseline="ideographic">405B Model</tspan></text></g></g></g><g id="g-root-tx_annealin_qsscnrr8xbt5-fill" data-item-order="0" transform="translate(104, 386.0001220703125)"><g id="tx_annealin_qsscnrr8xbt5-fill" stroke="none" fill="#484848"><g><text style="font: 20px Roboto, sans-serif; white-space: pre;" font-size="20px" font-family="Roboto, sans-serif"><tspan x="13.83" y="33.2" dominant-baseline="ideographic">Annealing Impact on Model Performance</tspan></text></g></g></g><g id="g-root-sy_4_cu_1uuwqafr8rmrn-stroke" data-item-order="-105977" transform="translate(121.95700073242188, 219.0001220703125)"><g id="sy_4_cu_1uuwqafr8rmrn-stroke" fill="none" stroke-linecap="round" stroke-linejoin="round" stroke-miterlimit="4" stroke="#484848" stroke-width="2"><g><path d="M 340.042999 93C 343.356999 93 346.042999 90.314 346.042999 87C 346.042999 83.686 343.356999 81 340.042999 81C 336.728999 81 334.042999 83.686 334.042999 87C 334.042999 90.314 336.728999 93 340.042999 93ZM 16.021999 45C 19.346999 45 22.042999 42.314 22.042999 39C 22.042999 35.686 19.346999 33 16.021999 33C 12.695999 33 9.999999 35.686 9.999999 39C 9.999999 42.314 12.695999 45 16.021999 45ZM 340.042999 81L 340.042999 57.75M 16.042999 10L 16.042999 33M 195.561999 65.593L 334.144999 86.11M 162.040999 60.634L 22.027999 39.904"></path></g></g></g><g id="g-root-sy_3_Exclude_1lz9q1jr8rnkc-stroke" data-item-order="-105974" transform="translate(243.055908203125, 256.0001220703125)"><g id="sy_3_Exclude_1lz9q1jr8rnkc-stroke" fill="none" stroke-linecap="round" stroke-linejoin="round" stroke-miterlimit="4" stroke="#ffffff" stroke-width="2"><g><path d="M 56.944107 10C 49.471107 10 43.195107 15.122 41.436107 22.047L 10.134107 124.12C 9.542107 126.049 10.984107 128 13.002107 128L 100.886107 128C 102.903107 128 104.346107 126.049 103.754107 124.12L 72.454107 22.054C 70.696107 15.126 64.419107 10 56.944107 10ZM 56.944107 33C 60.810107 33 63.944107 29.866 63.944107 26C 63.944107 22.134 60.810107 19 56.944107 19C 53.078107 19 49.944107 22.134 49.944107 26C 49.944107 29.866 53.078107 33 56.944107 33Z"></path></g></g></g><g id="g-root-sy_2_right-bucket_1hjg7x3r8rocl-stroke" data-item-order="-105970" transform="translate(338, 230.0001220703125)"><g id="sy_2_right-bucket_1hjg7x3r8rocl-stroke" fill="none" stroke-linecap="round" stroke-linejoin="round" stroke-miterlimit="4" stroke="#ffffff" stroke-width="2"><g><path d="M 11.081 15.729C 10.338 14.904 10 13.826 10 12.716L 10 12.716C 10 11.216 11.216 10 12.716 10L 235.284 10C 236.784 10 238 11.216 238 12.716L 238 12.716C 238 13.826 237.662 14.904 236.919 15.729C 231.551 21.692 204.717 46 124 46C 43.283 46 16.449 21.692 11.081 15.729Z"></path></g></g></g><g id="g-root-sy_1_left-bucket_18nt7o7r8rp5a-stroke" data-item-order="-105966" transform="translate(14, 182.0001220703125)"><g id="sy_1_left-bucket_18nt7o7r8rp5a-stroke" fill="none" stroke-linecap="round" stroke-linejoin="round" stroke-miterlimit="4" stroke="#ffffff" stroke-width="2"><g><path d="M 11.0812 15.729C 10.3384 14.904 10 13.826 10 12.716L 10 12.716C 10 11.216 11.2158 10 12.7157 10L 235.284 10C 236.784 10 238 11.216 238 12.716L 238 12.716C 238 13.826 237.662 14.904 236.919 15.729C 231.551 21.692 204.717 46 124 46C 43.2826 46 16.4488 21.692 11.0812 15.729Z"></path></g></g></g><g id="g-root-ic_myth_1hapkpjr8uigw-stroke" data-item-order="-2304" transform="translate(26, 50)"></g><g id="g-root-ic_2_74a3br8vv9e-stroke" data-item-order="-2304" transform="translate(350, 98)"></g><g id="g-root-ic_grow_13yml93r8t1c7-stroke" data-item-order="-2304" transform="translate(26, 122.0001220703125)"></g><g id="g-root-ic_clou_1qegr2vr8uhhd-stroke" data-item-order="-2304" transform="translate(350, 170.0001220703125)"></g><g id="g-root-tx_requires_dg2w47r8xb7w-stroke" data-item-order="0" transform="translate(86, 38)"></g><g id="g-root-tx_signific_qrjehjr8x9mz-stroke" data-item-order="0" transform="translate(86, 110.0001220703125)"></g><g id="g-root-tx_strongin_1luwefrr8xb0u-stroke" data-item-order="0" transform="translate(410, 98.0001220703125)"></g><g id="g-root-tx_negligib_58utzr8x9n1-stroke" data-item-order="0" transform="translate(410, 158.0001220703125)"></g><g id="g-root-tx_8bmodel_18k2d5jr8x9fz-stroke" data-item-order="0" transform="translate(80, 290.0001220703125)"></g><g id="g-root-tx_405bmode_zofcwnr8xb0g-stroke" data-item-order="0" transform="translate(392, 338.0001220703125)"></g><g id="g-root-tx_annealin_qsscnrr8xbt5-stroke" data-item-order="0" transform="translate(104, 386.0001220703125)"></g></g></g></svg>