<?xml version="1.0" encoding="utf-8" standalone="yes"?>
<!DOCTYPE svg PUBLIC "-//W3C//DTD SVG 1.1//EN" "http://www.w3.org/Graphics/SVG/1.1/DTD/svg11.dtd">
<svg width="768" height="456" viewBox="0 0 768 456" style="fill:none;stroke:none;fill-rule:evenodd;clip-rule:evenodd;stroke-linecap:round;stroke-linejoin:round;stroke-miterlimit:1.5;" version="1.1" xmlns="http://www.w3.org/2000/svg" xmlns:xlink="http://www.w3.org/1999/xlink"><style class="text-font-style fontImports" data-font-family="Roboto">@import url('https://fonts.googleapis.com/css2?family=Roboto:wght@400;700&amp;display=block');</style><g id="items" style="isolation: isolate"><g id="blend" style="mix-blend-mode: normal"><g id="g-root-sy_-1_cu_147z9qwriu2v7-fill" data-item-order="-110586" transform="translate(314, 110)"><g id="sy_-1_cu_147z9qwriu2v7-fill" stroke="none" fill="#a3a3a3"><g><path d="M 65.766602 298C 80.754802 298 106.000002 233.529 106.000002 154C 106.000002 74.471 80.754802 10 65.766602 10C 80.775202 10.0075 92.941702 74.6668 92.941702 154C 92.941702 233.333 80.775202 297.992 65.766602 298ZM 65.765897 298C 80.774597 297.992 92.941097 233.333 92.941097 154C 92.941097 74.6668 80.774597 10.0075 65.765897 10L 51.957397 10C 66.060697 15.1659 77.199297 77.8539 77.199297 154C 77.199297 230.146 65.382597 292.834 51.279297 298L 65.765897 298ZM 77.2 154C 77.2 230.146 65.3833 292.834 51.28 298L 50.0615 298C 35.0734 298 10 233.529 10 154C 10 74.471 35.0734 10 50.0615 10C 50.6991 10 51.9581 10 51.9581 10C 66.0614 15.1659 77.2 77.8539 77.2 154Z"></path></g></g></g><g id="g-root-cr_0_cr-medium_vcc9i0riu3nw-fill" data-item-order="-110582" transform="translate(482, 218)"><g id="cr_0_cr-medium_vcc9i0riu3nw-fill" stroke="none" fill="#666666"><g><path d="M 10 46C 10 65.882251 26.117749 82 46 82C 65.882251 82 82 65.882251 82 46C 82 26.117749 65.882251 10 46 10C 26.117749 10 10 26.117749 10 46"></path></g></g></g><g id="g-root-sy_3_line_qn5n2wrivfut-fill" data-item-order="-110575" transform="translate(230.109375, 278)"></g><g id="g-root-cr_3_cr-small_qn5n2wrivfuu-fill" data-item-order="-110574" transform="translate(170, 307.99993896484375)"><g id="cr_3_cr-small_qn5n2wrivfuu-fill" stroke="none" fill="#de8431"><g><path d="M 10 40C 10.000002 56.568544 23.431459 70.000002 40.000002 70.000002C 56.568544 70.000002 70.000002 56.568544 70.000002 40.000002C 70.000002 23.431459 56.568544 10.000002 40.000002 10.000002C 23.431459 10.000002 10.000002 23.431459 10.000002 40.000002"></path></g></g></g><g id="g-root-sy_2_line_hrimu0rivgnj-fill" data-item-order="-110567" transform="translate(230, 254)"></g><g id="g-root-cr_2_cr-small_dbp4pkrivhfs-fill" data-item-order="-110566" transform="translate(170, 224)"><g id="cr_2_cr-small_dbp4pkrivhfs-fill" stroke="none" fill="#3cc583"><g><path d="M 10 40C 10.000002 56.568544 23.431459 70.000002 40.000002 70.000002C 56.568544 70.000002 70.000002 56.568544 70.000002 40.000002C 70.000002 23.431459 56.568544 10.000002 40.000002 10.000002C 23.431459 10.000002 10.000002 23.431459 10.000002 40.000002"></path></g></g></g><g id="g-root-sy_1_line_8vvml4rivi81-fill" data-item-order="-110559" transform="translate(230, 170)"></g><g id="g-root-cr_1_cr-small_v3fcrivfuy-fill" data-item-order="-110558" transform="translate(170, 140)"><g id="cr_1_cr-small_v3fcrivfuy-fill" stroke="none" fill="#e0cb15"><g><path d="M 10 40C 10.000002 56.568544 23.431459 70.000002 40.000002 70.000002C 56.568544 70.000002 70.000002 56.568544 70.000002 40.000002C 70.000002 23.431459 56.568544 10.000002 40.000002 10.000002C 23.431459 10.000002 10.000002 23.431459 10.000002 40.000002"></path></g></g></g><g id="g-root-ic_incr_1um5na0rivgg3-fill" data-item-order="-2304" transform="translate(494, 230)"><g id="ic_incr_1um5na0rivgg3-fill" stroke="none" fill="#484848"><g><path d="M 58 11C 58 10.447715 57.552284 10 57 10L 48 10C 47.602638 10.003716 47.243607 10.237865 47.079998 10.6C 46.923519 10.957646 46.994232 11.374056 47.260002 11.66L 49.700001 14.38C 49.877857 14.571776 49.877857 14.868223 49.700001 15.059999L 46 19.200001C 45.909931 19.290379 45.78759 19.341179 45.659996 19.341179C 45.532406 19.341179 45.410061 19.290379 45.32 19.200001L 42.560001 17.040001C 41.512211 16.209759 39.996674 16.350739 39.120003 17.360001L 32.120003 25.360001C 31.463516 26.021141 31.229151 26.992493 31.511923 27.880255C 31.794695 28.768015 32.54768 29.424875 33.465607 29.584532C 34.383533 29.744186 35.314087 29.380148 35.880001 28.639999L 41 22.799999C 41.191776 22.622143 41.488224 22.622143 41.68 22.799999L 44.439999 25.02C 45.485775 25.844769 46.992783 25.713345 47.880001 24.720001L 53 18.880001C 53.099205 18.776581 53.236694 18.718693 53.379997 18.719999C 53.516838 18.721819 53.646954 18.779648 53.740002 18.880001L 56.259998 21.66C 56.533039 21.972549 56.970757 22.083969 57.360001 21.939999C 57.744411 21.785688 57.997326 21.414219 58 21ZM 10 10M 34 45.740002L 30.4 33.16C 30.005531 31.525393 29.1273 30.047733 27.879999 28.919998C 27.667519 28.714895 27.372461 28.619001 27.079998 28.659998C 26.787741 28.695868 26.52524 28.856283 26.360001 29.1L 22.84 34.639999C 22.655796 34.925171 22.339493 35.097412 22 35.097412C 21.660507 35.097412 21.344204 34.925171 21.16 34.639999L 17.68 29.08C 17.52121 28.830353 17.260019 28.663839 16.966679 28.625242C 16.67334 28.586645 16.377964 28.679926 16.16 28.879999C 14.904301 30.009029 14.024805 31.495796 13.64 33.139999L 10 45.740002C 9.918474 46.03603 9.977464 46.3531 10.16 46.599998C 10.346724 46.854347 10.644489 47.003227 10.96 47L 15.639999 47C 15.878729 47.002739 16.084921 47.167694 16.139999 47.399998L 18 57.200001C 18.095055 57.665665 18.50473 58.000095 18.98 58L 24.98 58C 25.470209 58.019646 25.902273 57.680771 26 57.200001L 27.860001 47.400002C 27.915079 47.167694 28.121269 47.002739 28.359999 46.999996L 33 47C 33.315514 47.003227 33.613274 46.854347 33.800003 46.599998C 33.996468 46.359879 34.070351 46.042171 34 45.740002ZM 22 27.059999C 26.68915 27.037933 30.474651 23.222637 30.459959 18.533459C 30.445265 13.84428 26.635925 10.052784 21.94673 10.060104C 17.257534 10.067426 13.460052 13.870798 13.46 18.560001C 13.471033 23.265472 17.294529 27.071058 22 27.059999ZM 22 23.060001C 19.971718 23.079762 18.18322 21.734285 17.639999 19.779999C 17.603857 19.652512 17.622026 19.515751 17.690205 19.402122C 17.758381 19.288494 17.870501 19.208103 18 19.18C 19.358091 18.704317 20.58946 17.92445 21.599998 16.9C 21.69112 16.79668 21.822239 16.73749 21.959999 16.73749C 22.097759 16.73749 22.228878 16.79668 22.32 16.9C 23.350239 17.938896 24.611063 18.720058 26 19.18C 26.247181 19.265516 26.386686 19.527088 26.32 19.779999C 25.780682 21.719883 24.013458 23.061665 22 23.059999Z"></path></g></g></g><g id="g-root-ic_writ_hxrdp4riwvm6-fill" data-item-order="-1296" transform="translate(182, 152)"><g id="ic_writ_hxrdp4riwvm6-fill" stroke="none" fill="#484848"><g><path d="M 33.279999 41.5C 33.279999 42.328426 32.608429 43 31.780001 43L 13 43C 11.343145 43 10 41.656857 10 40L 10 13C 10 11.343145 11.343145 10 13 10L 34 10C 35.656857 10 37 11.343145 37 13L 37 19.225C 37 20.053427 36.328426 20.725 35.5 20.725C 34.671574 20.725 34 20.053427 34 19.225L 34 14.5C 34 13.671573 33.328426 13 32.5 13L 14.5 13C 13.671573 13 13 13.671573 13 14.5L 13 38.5C 13 39.328426 13.671573 40 14.5 40L 31.75 40C 32.152996 39.991936 32.542282 40.146408 32.830109 40.428589C 33.117935 40.710773 33.280083 41.096924 33.279999 41.5ZM 31.255001 17.5C 31.246922 18.117943 30.747942 18.61692 30.130001 18.625L 22 18.625C 21.378681 18.625 20.875 18.121321 20.875 17.5C 20.875 16.878681 21.378681 16.375 22 16.375L 30.07 16.375C 30.37748 16.362829 30.676819 16.475479 30.899986 16.687347C 31.123154 16.899216 31.25119 17.192303 31.255001 17.5ZM 17.305 19C 16.476572 19 15.805 18.328426 15.805 17.5C 15.805 16.671574 16.476572 16 17.305 16C 18.133427 16 18.805 16.671574 18.805 17.5C 18.805 18.328426 18.133427 19 17.305 19ZM 26.335001 22.75C 26.326921 23.367943 25.827942 23.86692 25.209999 23.875L 22 23.875C 21.378681 23.875 20.875 23.371321 20.875 22.75C 20.875 22.128681 21.378681 21.625 22 21.625L 25.150002 21.625C 25.457479 21.612829 25.756819 21.725479 25.979986 21.937347C 26.203154 22.149216 26.331192 22.442303 26.334999 22.75ZM 17.305 24.25C 16.476572 24.25 15.805 23.578428 15.805 22.75C 15.805 21.921574 16.476572 21.25 17.305 21.25C 18.133427 21.25 18.805 21.921574 18.805 22.75C 18.805 23.578428 18.133427 24.25 17.305 24.25ZM 35.380001 24.280001C 35.487823 24.217838 35.555889 24.104391 35.559998 23.98C 35.560108 23.857742 35.504982 23.741978 35.41 23.665001C 34.339428 23.026737 33.036449 22.910793 31.870001 23.35C 29.272984 24.155659 27.279884 26.250969 26.605 28.884998C 26.561268 29.034941 26.615049 29.196287 26.74 29.289999C 26.865494 29.380127 27.034504 29.380127 27.16 29.289999ZM 24.414999 33.43C 24.346386 33.32336 24.22673 33.260681 24.099998 33.264999C 23.977839 33.263 23.863729 33.32576 23.799999 33.43L 21.67 36.834999C 21.521492 37.079193 21.521492 37.385807 21.67 37.630001C 21.806906 37.854897 22.051714 37.991531 22.315001 37.989998L 26.305 37.645C 26.425169 37.627892 26.530519 37.555809 26.59 37.449997C 26.657572 37.339512 26.657572 37.200489 26.59 37.09ZM 45.595001 46C 45.705223 45.999073 45.80946 45.949699 45.880001 45.864998C 45.954208 45.783974 45.98735 45.673492 45.969997 45.564999C 45.685001 43.66 44.470001 35.920002 41.949997 31.465C 41.900726 31.378475 41.820225 31.314077 41.724998 31.284998C 41.629761 31.241348 41.520233 31.241348 41.424999 31.285L 36.925003 34.045002C 36.828411 34.081932 36.721592 34.081932 36.625 34.045002L 32.23 32.814999C 31.631853 32.591862 30.959217 32.720505 30.48562 33.148613C 30.012024 33.576721 29.816345 34.232998 29.978159 34.850563C 30.139969 35.468128 30.632322 35.94413 31.255001 36.084999L 34.645 37.195C 34.775696 37.236263 34.873466 37.345539 34.900002 37.48C 35.295116 39.408264 36.798298 40.917343 38.725002 41.32C 38.800198 41.336048 38.858948 41.394798 38.874996 41.470001L 39.264999 45.579998C 39.280674 45.775311 39.444065 45.925629 39.639999 45.925003ZM 28.645 33.595001C 29.063469 32.245995 30.307606 31.323515 31.720001 31.315001C 32.023918 31.316034 32.326427 31.356369 32.619999 31.434999L 36.204998 32.455002C 36.300232 32.49865 36.409763 32.49865 36.504997 32.454998L 37.66 31.75L 41.965 29.110001C 43.384285 28.259773 43.847332 26.421017 43 25C 42.598961 24.313492 41.930679 23.824505 41.154999 23.650002C 40.379387 23.456656 39.558685 23.580841 38.875 23.994999L 25.75 31.960001C 25.578184 32.069237 25.52492 32.295612 25.630001 32.470001L 28.360001 36.970001C 28.409271 37.056519 28.489771 37.120918 28.584999 37.149998C 28.677492 37.180878 28.777508 37.180878 28.869999 37.150002L 29.08 37.029999C 29.159622 36.96373 29.217175 36.874786 29.244999 36.775002C 29.25668 36.67395 29.229904 36.572212 29.170002 36.489998C 28.534651 35.667786 28.338829 34.587959 28.645 33.595001Z"></path></g></g></g><g id="g-root-ic_ocea_dcy2vsriwwzp-fill" data-item-order="-1296" transform="translate(182, 236)"><g id="ic_ocea_dcy2vsriwwzp-fill" stroke="none" fill="#484848"><g><path d="M 28 10C 18.058874 10 10 18.058874 10 28L 17.049999 28C 17.050001 21.952482 21.952482 17.049999 28 17.049999C 34.04752 17.049999 38.950001 21.952482 38.950001 28C 38.950001 34.04752 34.04752 38.950001 28 38.950001L 28 46C 37.941124 46 46 37.941124 46 28C 46 18.058876 37.941124 10.000001 28 10.000001ZM 20.950001 31.914999L 28 31.914999L 28 38.965L 20.950001 38.965ZM 15.475 38.949997L 20.950001 38.949997L 20.950001 44.425003L 15.475 44.425003ZM 11.559999 35.050003L 15.475 35.050003L 15.475 38.965L 11.559999 38.965Z"></path></g></g></g><g id="g-root-ic_puzz_144uwbcrivfus-fill" data-item-order="-1296" transform="translate(182, 320)"><g id="ic_puzz_144uwbcrivfus-fill" stroke="none" fill="#484848"><g><path d="M 36.610001 22.48C 37.172707 21.91667 37.936272 21.60014 38.732502 21.60014C 39.528725 21.60014 40.292297 21.91667 40.855 22.48C 41.142223 22.768566 41.362431 23.116798 41.5 23.5C 41.599579 23.735138 41.806053 23.908127 42.055 23.965C 42.300789 24.009388 42.552773 23.930992 42.73 23.755001L 45.07 21.415001C 45.651585 20.829945 45.651585 19.885056 45.07 19.299999L 43.105 17.305C 43.013329 17.221806 42.973259 17.095871 43 16.975C 43.017929 16.850859 43.096741 16.7439 43.209999 16.690001C 44.295082 16.178724 44.971317 15.070243 44.929455 13.87147C 44.887596 12.672697 44.135681 11.614087 43.017578 11.179749C 41.899475 10.745411 40.630119 11.018842 39.790001 11.875C 39.542778 12.108972 39.344009 12.389295 39.205002 12.7C 39.142681 12.805998 39.0397 12.881877 38.920002 12.91C 38.8046 12.923677 38.68911 12.885181 38.605 12.805L 36.610001 10.81C 36.32835 10.526031 35.944958 10.366302 35.545002 10.366302C 35.145042 10.366302 34.76165 10.526031 34.48 10.81L 32.305 13C 32.147659 13.157822 32.070419 13.378506 32.095001 13.6C 32.115658 13.825305 32.236919 14.029245 32.424999 14.155C 32.592773 14.263275 32.748638 14.388973 32.889999 14.53C 34.06176 15.702304 34.061539 17.602474 32.889507 18.774506C 31.717474 19.946537 29.817305 19.946758 28.645 18.775C 28.503973 18.633638 28.378277 18.477774 28.27 18.309999C 28.144245 18.121918 27.940304 18.000656 27.715 17.98C 27.493505 17.95542 27.272821 18.03266 27.115 18.190001L 25 20.35C 24.71603 20.631649 24.556303 21.015043 24.556303 21.415001C 24.556303 21.814957 24.71603 22.198351 25 22.48L 33.43 31C 34.009445 31.55238 34.920551 31.55238 35.5 31L 37.84 28.66C 38.01965 28.481339 38.096951 28.224049 38.045517 27.97596C 37.994087 27.727869 37.820869 27.522518 37.584999 27.43C 37.200424 27.28804 36.852077 27.062639 36.564999 26.769999C 35.993641 26.199545 35.676334 25.422873 35.684803 24.615532C 35.693272 23.808191 36.026802 23.038343 36.610001 22.48ZM 32.739998 43.779999C 34.239998 43.045002 35.935001 42.084999 38.154999 40.900002L 36.264999 36.699997L 34.404999 37.314999C 34.190155 37.390873 34.012852 37.546684 33.91 37.75C 33.339104 38.890808 32.185291 39.623478 30.91 39.654999ZM 18.07 34C 18.507072 33.409836 18.7672 32.707489 18.82 31.974998C 18.497171 31.927071 18.17136 31.902008 17.844999 31.9L 10.705 31.900002C 10.555 31.974998 10.465 32.049999 10.465 32.215L 10.465 36.264999C 14.26 36.34 16.885 35.574997 18.07 34ZM 44.5 36.175003C 43.356308 35.176598 41.767704 34.862305 40.329998 35.349998L 37.900002 36.145L 39.670002 40.09C 41.050003 39.355 42.579998 38.59 44.349998 37.66C 44.619991 37.52393 44.801838 37.259445 44.832226 36.958633C 44.86261 36.657822 44.737328 36.362312 44.5 36.174999ZM 29.005001 39.670002L 23.905001 39.670002C 23.5697 39.714314 23.239105 39.560287 23.057337 39.27507C 22.875566 38.989857 22.875566 38.625141 23.057337 38.339928C 23.239105 38.054707 23.5697 37.900684 23.904999 37.945L 30.82 37.945C 31.714577 37.861668 32.398617 37.11095 32.398617 36.212498C 32.398617 35.314049 31.714577 34.563328 30.82 34.48L 24.91 34.48C 24.8172 34.480103 24.727179 34.44833 24.655001 34.389999C 23.401947 33.458405 21.995823 32.752804 20.5 32.305C 20.394554 33.293633 20.026875 34.23613 19.435001 35.035C 17.934999 37 15.16 38.035 11.095 38.035L 10.465 38.035L 10.465 40.135002C 10.464897 40.295872 10.55068 40.444565 10.69 40.525002C 10.825 40.599998 23.934999 45.639999 26.710001 45.685001C 28.276346 45.67345 29.817959 45.293186 31.209999 44.574997Z"></path></g></g></g><g id="g-root-tx_datasour_1ltn0goriy96r-fill" data-item-order="0" transform="translate(152, 40.4000244140625)"><g id="tx_datasour_1ltn0goriy96r-fill" stroke="none" fill="#484848"><g><text style="font: 20px Roboto, sans-serif; white-space: pre;" font-size="20px" font-family="Roboto, sans-serif"><tspan x="38.76" y="51.2" dominant-baseline="ideographic">Data Sources for Supervised Finetuning</tspan></text></g></g></g><g id="g-root-tx_humanann_3czrsriyayq-fill" data-item-order="0" transform="translate(50, 134)"><g id="tx_humanann_3czrsriyayq-fill" stroke="none" fill="#46432d"><g><text style="font: 20px Roboto, sans-serif; white-space: pre;" font-size="20px" font-family="Roboto, sans-serif"><tspan x="51.24" y="33.2" dominant-baseline="ideographic">Human </tspan><tspan x="18.18" y="57.2" dominant-baseline="ideographic">Annotation </tspan><tspan x="39.75" y="81.2" dominant-baseline="ideographic">Prompts</tspan></text></g></g></g><g id="g-root-tx_syntheti_deti54riy9dt-fill" data-item-order="0" transform="translate(-10, 218)"><g id="tx_syntheti_deti54riy9dt-fill" stroke="none" fill="#374840"><g><text style="font: 20px Roboto, sans-serif; white-space: pre;" font-size="20px" font-family="Roboto, sans-serif"><tspan x="47.19" y="33.2" dominant-baseline="ideographic">Synthetic Data </tspan><tspan x="16.63" y="57.2" dominant-baseline="ideographic">Targeting Specific </tspan><tspan x="71.84" y="81.2" dominant-baseline="ideographic">Capabilities</tspan></text></g></g></g><g id="g-root-tx_enhanced_1cw4kygriyaz3-fill" data-item-order="0" transform="translate(566, 230)"><g id="tx_enhanced_1cw4kygriyaz3-fill" stroke="none" fill="#3a4455"><g><text style="font: 20px Roboto, sans-serif; white-space: pre;" font-size="20px" font-family="Roboto, sans-serif"><tspan x="12" y="33.2" dominant-baseline="ideographic">Enhanced Model </tspan><tspan x="12" y="57.2" dominant-baseline="ideographic">Performance</tspan></text></g></g></g><g id="g-root-tx_humancur_v5h1jsriya6g-fill" data-item-order="0" transform="translate(14, 314)"><g id="tx_humancur_v5h1jsriya6g-fill" stroke="none" fill="#4c4034"><g><text style="font: 20px Roboto, sans-serif; white-space: pre;" font-size="20px" font-family="Roboto, sans-serif"><tspan x="11.98" y="33.2" dominant-baseline="ideographic">Human-Curated </tspan><tspan x="110.56" y="57.2" dominant-baseline="ideographic">Data</tspan></text></g></g></g><g id="g-root-sy_-1_cu_147z9qwriu2v7-stroke" data-item-order="-110586" transform="translate(314, 110)"><g id="sy_-1_cu_147z9qwriu2v7-stroke" fill="none" stroke-linecap="round" stroke-linejoin="round" stroke-miterlimit="4" stroke="#ffffff" stroke-width="2"><g><path d="M 65.766602 298C 80.754802 298 106.000002 233.529 106.000002 154C 106.000002 74.471 80.754802 10 65.766602 10C 80.775202 10.0075 92.941702 74.6668 92.941702 154C 92.941702 233.3332 80.775202 297.9925 65.766602 298ZM 65.765897 298C 80.774597 297.9925 92.941097 233.3332 92.941097 154C 92.941097 74.6668 80.774597 10.0075 65.765897 10L 51.957397 10C 66.060697 15.1659 77.199297 77.8539 77.199297 154C 77.199297 230.1462 65.382597 292.8341 51.279297 298L 65.765897 298ZM 77.2 154C 77.2 230.1462 65.3833 292.8341 51.28 298L 50.0615 298C 35.0734 298 10 233.529 10 154C 10 74.471 35.0734 10 50.0615 10C 50.6991 10 51.9581 10 51.9581 10C 66.0614 15.1659 77.2 77.8539 77.2 154Z"></path></g></g></g><g id="g-root-cr_0_cr-medium_vcc9i0riu3nw-stroke" data-item-order="-110582" transform="translate(482, 218)"><g id="cr_0_cr-medium_vcc9i0riu3nw-stroke" fill="none" stroke-linecap="round" stroke-linejoin="round" stroke-miterlimit="4" stroke="#ffffff" stroke-width="2"><g><path d="M 10 46C 10 65.882251 26.117749 82 46 82C 65.882251 82 82 65.882251 82 46C 82 26.117749 65.882251 10 46 10C 26.117749 10 10 26.117749 10 46"></path></g></g></g><g id="g-root-sy_3_line_qn5n2wrivfut-stroke" data-item-order="-110575" transform="translate(230.109375, 278)"><g id="sy_3_line_qn5n2wrivfut-stroke" fill="none" stroke-linecap="round" stroke-linejoin="round" stroke-miterlimit="4" stroke="#de8431" stroke-width="2"><g><path d="M 254.08061 10.86L 129.89061 70L 10.00061 70"></path><path d="M 251.49061 19.3L 254.49061 10.6L 245.89061 7.6" stroke-dasharray="none"></path></g></g></g><g id="g-root-cr_3_cr-small_qn5n2wrivfuu-stroke" data-item-order="-110574" transform="translate(170, 307.99993896484375)"><g id="cr_3_cr-small_qn5n2wrivfuu-stroke" fill="none" stroke-linecap="round" stroke-linejoin="round" stroke-miterlimit="4" stroke="#ffffff" stroke-width="2"><g><path d="M 10 40C 10.000002 56.568544 23.431459 70.000002 40.000002 70.000002C 56.568544 70.000002 70.000002 56.568544 70.000002 40.000002C 70.000002 23.431459 56.568544 10.000002 40.000002 10.000002C 23.431459 10.000002 10.000002 23.431459 10.000002 40.000002"></path></g></g></g><g id="g-root-sy_2_line_hrimu0rivgnj-stroke" data-item-order="-110567" transform="translate(230, 254)"><g id="sy_2_line_hrimu0rivgnj-stroke" fill="none" stroke-linecap="round" stroke-linejoin="round" stroke-miterlimit="4" stroke="#3cc583" stroke-width="2"><g><path d="M 248 10L 130 10L 10 10"></path><path d="M 242 16.5L 248.5 10L 242 3.5" stroke-dasharray="none"></path></g></g></g><g id="g-root-cr_2_cr-small_dbp4pkrivhfs-stroke" data-item-order="-110566" transform="translate(170, 224)"><g id="cr_2_cr-small_dbp4pkrivhfs-stroke" fill="none" stroke-linecap="round" stroke-linejoin="round" stroke-miterlimit="4" stroke="#ffffff" stroke-width="2"><g><path d="M 10 40C 10.000002 56.568544 23.431459 70.000002 40.000002 70.000002C 56.568544 70.000002 70.000002 56.568544 70.000002 40.000002C 70.000002 23.431459 56.568544 10.000002 40.000002 10.000002C 23.431459 10.000002 10.000002 23.431459 10.000002 40.000002"></path></g></g></g><g id="g-root-sy_1_line_8vvml4rivi81-stroke" data-item-order="-110559" transform="translate(230, 170)"><g id="sy_1_line_8vvml4rivi81-stroke" fill="none" stroke-linecap="round" stroke-linejoin="round" stroke-miterlimit="4" stroke="#e0cb15" stroke-width="2"><g><path d="M 254.19 69.14L 130 10L 10 10"></path><path d="M 246 72.4L 254.6 69.4L 251.6 60.7" stroke-dasharray="none"></path></g></g></g><g id="g-root-cr_1_cr-small_v3fcrivfuy-stroke" data-item-order="-110558" transform="translate(170, 140)"><g id="cr_1_cr-small_v3fcrivfuy-stroke" fill="none" stroke-linecap="round" stroke-linejoin="round" stroke-miterlimit="4" stroke="#ffffff" stroke-width="2"><g><path d="M 10 40C 10.000002 56.568544 23.431459 70.000002 40.000002 70.000002C 56.568544 70.000002 70.000002 56.568544 70.000002 40.000002C 70.000002 23.431459 56.568544 10.000002 40.000002 10.000002C 23.431459 10.000002 10.000002 23.431459 10.000002 40.000002"></path></g></g></g><g id="g-root-ic_incr_1um5na0rivgg3-stroke" data-item-order="-2304" transform="translate(494, 230)"></g><g id="g-root-ic_writ_hxrdp4riwvm6-stroke" data-item-order="-1296" transform="translate(182, 152)"></g><g id="g-root-ic_ocea_dcy2vsriwwzp-stroke" data-item-order="-1296" transform="translate(182, 236)"></g><g id="g-root-ic_puzz_144uwbcrivfus-stroke" data-item-order="-1296" transform="translate(182, 320)"></g><g id="g-root-tx_datasour_1ltn0goriy96r-stroke" data-item-order="0" transform="translate(152, 40.4000244140625)"></g><g id="g-root-tx_humanann_3czrsriyayq-stroke" data-item-order="0" transform="translate(50, 134)"></g><g id="g-root-tx_syntheti_deti54riy9dt-stroke" data-item-order="0" transform="translate(-10, 218)"></g><g id="g-root-tx_enhanced_1cw4kygriyaz3-stroke" data-item-order="0" transform="translate(566, 230)"></g><g id="g-root-tx_humancur_v5h1jsriya6g-stroke" data-item-order="0" transform="translate(14, 314)"></g></g></g></svg>